# xmcd
#
# Track frame offsets: 
#        150
#        25314
#        47414
#        66795
#        88935
#        102923
#        121243
#        140792
#        159246
#        183722
#        205828
#        231169
#
# Disc length: 3303 seconds
#
# Revision: 0
# Processed by: cddbd v1.5.2PL0 Copyright (c) Steve Scherf et al.
# Submitted via: ExactAudioCopy v0.99pb4
#
DISCID=a50ce50c
DTITLE=Ho Quynh Huong - SAC tinh yeu
DYEAR=2005
DGENRE=Pop
TTITLE0=Dem sao
TTITLE1=Tieng dan tinh yeu
TTITLE2=Voi anh, em van la co be
TTITLE3=Con mua mua dong
TTITLE4=Vu dieu hoang da
TTITLE5=Va nhu the ta da yeu nhau
TTITLE6=Se mai la ban than
TTITLE7=Tuyet vong
TTITLE8=Nuoi tiec
TTITLE9=Hay yeu nhu chua yeu lan nao
TTITLE10=Em va toi
TTITLE11=Ky niem
EXTD=
EXTT0=
EXTT1=
EXTT2=
EXTT3=
EXTT4=
EXTT5=
EXTT6=
EXTT7=
EXTT8=
EXTT9=
EXTT10=
EXTT11=
PLAYORDER=
